<mxfile host="Electron" agent="Mozilla/5.0 (Macintosh; Intel Mac OS X 10_15_7) AppleWebKit/537.36 (KHTML, like Gecko) draw.io/24.7.8 Chrome/128.0.6613.36 Electron/32.0.1 Safari/537.36" version="24.7.8">
  <diagram name="Page-1" id="-H_mtQnk-PTXWXPvYvuk">
    <mxGraphModel dx="1590" dy="1020" grid="1" gridSize="10" guides="1" tooltips="1" connect="1" arrows="1" fold="1" page="1" pageScale="1" pageWidth="1169" pageHeight="827" math="0" shadow="0">
      <root>
        <mxCell id="0" />
        <mxCell id="1" parent="0" />
        <mxCell id="ud8dLrYySwsIMFc9I5CR-43" value="" style="rounded=0;whiteSpace=wrap;html=1;fillColor=#f5f5f5;fontColor=#333333;strokeColor=#666666;" parent="1" vertex="1">
          <mxGeometry x="80" y="120" width="700" height="990" as="geometry" />
        </mxCell>
        <mxCell id="srwAjF9KwZ2KX3XEETUP-12" value="" style="rounded=0;whiteSpace=wrap;html=1;fillColor=#dae8fc;strokeColor=#6c8ebf;" parent="1" vertex="1">
          <mxGeometry x="420" y="940" width="250" height="130" as="geometry" />
        </mxCell>
        <mxCell id="srwAjF9KwZ2KX3XEETUP-9" value="" style="rounded=0;whiteSpace=wrap;html=1;fillColor=#dae8fc;strokeColor=#6c8ebf;" parent="1" vertex="1">
          <mxGeometry x="150" y="940" width="250" height="130" as="geometry" />
        </mxCell>
        <mxCell id="ud8dLrYySwsIMFc9I5CR-44" style="edgeStyle=orthogonalEdgeStyle;rounded=0;orthogonalLoop=1;jettySize=auto;html=1;" parent="1" source="ud8dLrYySwsIMFc9I5CR-46" target="ud8dLrYySwsIMFc9I5CR-50" edge="1">
          <mxGeometry relative="1" as="geometry" />
        </mxCell>
        <mxCell id="kGEtOs7ZCl7UerSwRPXk-17" style="edgeStyle=orthogonalEdgeStyle;rounded=0;orthogonalLoop=1;jettySize=auto;html=1;entryX=0.25;entryY=1;entryDx=0;entryDy=0;fillColor=#dae8fc;strokeColor=#6c8ebf;" parent="1" source="ud8dLrYySwsIMFc9I5CR-46" target="4U2HR89GVIqmPnBPKdxg-13" edge="1">
          <mxGeometry relative="1" as="geometry" />
        </mxCell>
        <mxCell id="ud8dLrYySwsIMFc9I5CR-46" value="&lt;div&gt;Шард 1.&amp;nbsp;&lt;/div&gt;MongoDB" style="shape=cylinder3;whiteSpace=wrap;html=1;boundedLbl=1;backgroundOutline=1;size=15;" parent="1" vertex="1">
          <mxGeometry x="245" y="840" width="60" height="80" as="geometry" />
        </mxCell>
        <mxCell id="kGEtOs7ZCl7UerSwRPXk-15" style="edgeStyle=orthogonalEdgeStyle;rounded=0;orthogonalLoop=1;jettySize=auto;html=1;exitX=1;exitY=0.5;exitDx=0;exitDy=0;fillColor=#dae8fc;strokeColor=#6c8ebf;" parent="1" source="ud8dLrYySwsIMFc9I5CR-47" target="4U2HR89GVIqmPnBPKdxg-13" edge="1">
          <mxGeometry relative="1" as="geometry">
            <Array as="points">
              <mxPoint x="410" y="710" />
            </Array>
          </mxGeometry>
        </mxCell>
        <mxCell id="ud8dLrYySwsIMFc9I5CR-47" value="Router" style="rounded=1;whiteSpace=wrap;html=1;" parent="1" vertex="1">
          <mxGeometry x="230" y="680" width="120" height="60" as="geometry" />
        </mxCell>
        <mxCell id="ud8dLrYySwsIMFc9I5CR-50" value="&lt;div&gt;Шард 1 - replica 1&lt;/div&gt;" style="shape=cylinder3;whiteSpace=wrap;html=1;boundedLbl=1;backgroundOutline=1;size=15;" parent="1" vertex="1">
          <mxGeometry x="165" y="970" width="60" height="80" as="geometry" />
        </mxCell>
        <mxCell id="ud8dLrYySwsIMFc9I5CR-51" value="&lt;div&gt;Шард 1&lt;span style=&quot;background-color: initial;&quot;&gt;&amp;nbsp;&lt;/span&gt;&lt;span style=&quot;background-color: initial;&quot;&gt;- replica 2&lt;/span&gt;&lt;/div&gt;" style="shape=cylinder3;whiteSpace=wrap;html=1;boundedLbl=1;backgroundOutline=1;size=15;" parent="1" vertex="1">
          <mxGeometry x="245" y="970" width="60" height="80" as="geometry" />
        </mxCell>
        <mxCell id="ud8dLrYySwsIMFc9I5CR-52" value="&lt;div&gt;Шард 1&lt;span style=&quot;background-color: initial;&quot;&gt;&amp;nbsp;&lt;/span&gt;&lt;span style=&quot;background-color: initial;&quot;&gt;- replica 3&lt;/span&gt;&lt;/div&gt;" style="shape=cylinder3;whiteSpace=wrap;html=1;boundedLbl=1;backgroundOutline=1;size=15;" parent="1" vertex="1">
          <mxGeometry x="325" y="970" width="60" height="80" as="geometry" />
        </mxCell>
        <mxCell id="ud8dLrYySwsIMFc9I5CR-54" style="edgeStyle=orthogonalEdgeStyle;rounded=0;orthogonalLoop=1;jettySize=auto;html=1;entryX=0.5;entryY=0;entryDx=0;entryDy=0;entryPerimeter=0;" parent="1" source="ud8dLrYySwsIMFc9I5CR-46" target="ud8dLrYySwsIMFc9I5CR-52" edge="1">
          <mxGeometry relative="1" as="geometry" />
        </mxCell>
        <mxCell id="ud8dLrYySwsIMFc9I5CR-55" style="edgeStyle=orthogonalEdgeStyle;rounded=0;orthogonalLoop=1;jettySize=auto;html=1;" parent="1" source="ud8dLrYySwsIMFc9I5CR-57" target="ud8dLrYySwsIMFc9I5CR-58" edge="1">
          <mxGeometry relative="1" as="geometry" />
        </mxCell>
        <mxCell id="srwAjF9KwZ2KX3XEETUP-11" style="edgeStyle=orthogonalEdgeStyle;rounded=0;orthogonalLoop=1;jettySize=auto;html=1;" parent="1" source="ud8dLrYySwsIMFc9I5CR-57" target="ud8dLrYySwsIMFc9I5CR-59" edge="1">
          <mxGeometry relative="1" as="geometry" />
        </mxCell>
        <mxCell id="ud8dLrYySwsIMFc9I5CR-57" value="&lt;div&gt;Шард 2.&amp;nbsp;&lt;/div&gt;MongoDB" style="shape=cylinder3;whiteSpace=wrap;html=1;boundedLbl=1;backgroundOutline=1;size=15;" parent="1" vertex="1">
          <mxGeometry x="515" y="840" width="60" height="80" as="geometry" />
        </mxCell>
        <mxCell id="ud8dLrYySwsIMFc9I5CR-58" value="&lt;div&gt;Шард 2 - replica 1&lt;/div&gt;" style="shape=cylinder3;whiteSpace=wrap;html=1;boundedLbl=1;backgroundOutline=1;size=15;" parent="1" vertex="1">
          <mxGeometry x="435" y="970" width="60" height="80" as="geometry" />
        </mxCell>
        <mxCell id="ud8dLrYySwsIMFc9I5CR-59" value="&lt;div&gt;Шард 2&lt;span style=&quot;background-color: initial;&quot;&gt;&amp;nbsp;&lt;/span&gt;&lt;span style=&quot;background-color: initial;&quot;&gt;- replica 2&lt;/span&gt;&lt;/div&gt;" style="shape=cylinder3;whiteSpace=wrap;html=1;boundedLbl=1;backgroundOutline=1;size=15;" parent="1" vertex="1">
          <mxGeometry x="515" y="970" width="60" height="80" as="geometry" />
        </mxCell>
        <mxCell id="ud8dLrYySwsIMFc9I5CR-60" value="&lt;div&gt;Шард 2&lt;span style=&quot;background-color: initial;&quot;&gt;&amp;nbsp;&lt;/span&gt;&lt;span style=&quot;background-color: initial;&quot;&gt;- replica 3&lt;/span&gt;&lt;/div&gt;" style="shape=cylinder3;whiteSpace=wrap;html=1;boundedLbl=1;backgroundOutline=1;size=15;" parent="1" vertex="1">
          <mxGeometry x="595" y="970" width="60" height="80" as="geometry" />
        </mxCell>
        <mxCell id="ud8dLrYySwsIMFc9I5CR-61" style="edgeStyle=orthogonalEdgeStyle;rounded=0;orthogonalLoop=1;jettySize=auto;html=1;entryX=0.5;entryY=0;entryDx=0;entryDy=0;entryPerimeter=0;" parent="1" source="ud8dLrYySwsIMFc9I5CR-57" target="ud8dLrYySwsIMFc9I5CR-60" edge="1">
          <mxGeometry relative="1" as="geometry" />
        </mxCell>
        <mxCell id="srwAjF9KwZ2KX3XEETUP-5" style="edgeStyle=orthogonalEdgeStyle;rounded=0;orthogonalLoop=1;jettySize=auto;html=1;entryX=0.5;entryY=0;entryDx=0;entryDy=0;entryPerimeter=0;exitX=0.5;exitY=1;exitDx=0;exitDy=0;" parent="1" source="ud8dLrYySwsIMFc9I5CR-47" target="ud8dLrYySwsIMFc9I5CR-57" edge="1">
          <mxGeometry relative="1" as="geometry">
            <mxPoint x="545" y="770" as="sourcePoint" />
            <Array as="points">
              <mxPoint x="290" y="800" />
              <mxPoint x="545" y="800" />
            </Array>
          </mxGeometry>
        </mxCell>
        <mxCell id="srwAjF9KwZ2KX3XEETUP-7" style="edgeStyle=orthogonalEdgeStyle;rounded=0;orthogonalLoop=1;jettySize=auto;html=1;entryX=0.5;entryY=0;entryDx=0;entryDy=0;" parent="1" source="srwAjF9KwZ2KX3XEETUP-6" target="ud8dLrYySwsIMFc9I5CR-47" edge="1">
          <mxGeometry relative="1" as="geometry" />
        </mxCell>
        <mxCell id="4U2HR89GVIqmPnBPKdxg-14" style="edgeStyle=orthogonalEdgeStyle;rounded=0;orthogonalLoop=1;jettySize=auto;html=1;entryX=1;entryY=0.5;entryDx=0;entryDy=0;" parent="1" source="srwAjF9KwZ2KX3XEETUP-6" target="srwAjF9KwZ2KX3XEETUP-15" edge="1">
          <mxGeometry relative="1" as="geometry" />
        </mxCell>
        <mxCell id="HG72JcUZbSad4Wbdrgi7-16" style="edgeStyle=orthogonalEdgeStyle;rounded=0;orthogonalLoop=1;jettySize=auto;html=1;fillColor=#d5e8d4;strokeColor=#82b366;" edge="1" parent="1" source="srwAjF9KwZ2KX3XEETUP-6">
          <mxGeometry relative="1" as="geometry">
            <mxPoint x="595" y="390" as="targetPoint" />
            <Array as="points">
              <mxPoint x="540" y="500" />
              <mxPoint x="540" y="390" />
            </Array>
          </mxGeometry>
        </mxCell>
        <mxCell id="srwAjF9KwZ2KX3XEETUP-6" value="pymongo-api" style="rounded=1;whiteSpace=wrap;html=1;" parent="1" vertex="1">
          <mxGeometry x="230" y="470" width="120" height="60" as="geometry" />
        </mxCell>
        <mxCell id="srwAjF9KwZ2KX3XEETUP-10" style="edgeStyle=orthogonalEdgeStyle;rounded=0;orthogonalLoop=1;jettySize=auto;html=1;entryX=0.5;entryY=0;entryDx=0;entryDy=0;entryPerimeter=0;" parent="1" source="ud8dLrYySwsIMFc9I5CR-46" target="ud8dLrYySwsIMFc9I5CR-51" edge="1">
          <mxGeometry relative="1" as="geometry" />
        </mxCell>
        <mxCell id="srwAjF9KwZ2KX3XEETUP-13" style="edgeStyle=orthogonalEdgeStyle;rounded=0;orthogonalLoop=1;jettySize=auto;html=1;entryX=0.18;entryY=0.994;entryDx=0;entryDy=0;entryPerimeter=0;exitX=0.86;exitY=1.016;exitDx=0;exitDy=0;exitPerimeter=0;startArrow=classic;startFill=1;" parent="1" source="srwAjF9KwZ2KX3XEETUP-9" target="srwAjF9KwZ2KX3XEETUP-12" edge="1">
          <mxGeometry relative="1" as="geometry">
            <mxPoint x="320" y="1090" as="sourcePoint" />
            <Array as="points">
              <mxPoint x="365" y="1090" />
              <mxPoint x="465" y="1090" />
            </Array>
          </mxGeometry>
        </mxCell>
        <mxCell id="srwAjF9KwZ2KX3XEETUP-15" value="Redis" style="rounded=1;whiteSpace=wrap;html=1;" parent="1" vertex="1">
          <mxGeometry x="90" y="470" width="120" height="60" as="geometry" />
        </mxCell>
        <mxCell id="4U2HR89GVIqmPnBPKdxg-13" value="ConfigServer" style="rounded=1;whiteSpace=wrap;html=1;fillColor=#dae8fc;strokeColor=#6c8ebf;" parent="1" vertex="1">
          <mxGeometry x="350" y="580" width="120" height="60" as="geometry" />
        </mxCell>
        <mxCell id="4U2HR89GVIqmPnBPKdxg-16" style="edgeStyle=orthogonalEdgeStyle;rounded=0;orthogonalLoop=1;jettySize=auto;html=1;entryX=0.675;entryY=0.99;entryDx=0;entryDy=0;entryPerimeter=0;fillColor=#dae8fc;strokeColor=#6c8ebf;" parent="1" source="ud8dLrYySwsIMFc9I5CR-57" target="4U2HR89GVIqmPnBPKdxg-13" edge="1">
          <mxGeometry relative="1" as="geometry">
            <mxPoint x="431" y="690.4200000000001" as="targetPoint" />
          </mxGeometry>
        </mxCell>
        <mxCell id="kGEtOs7ZCl7UerSwRPXk-12" style="edgeStyle=orthogonalEdgeStyle;rounded=0;orthogonalLoop=1;jettySize=auto;html=1;entryX=0.5;entryY=0;entryDx=0;entryDy=0;" parent="1" source="kGEtOs7ZCl7UerSwRPXk-4" target="kGEtOs7ZCl7UerSwRPXk-9" edge="1">
          <mxGeometry relative="1" as="geometry" />
        </mxCell>
        <mxCell id="kGEtOs7ZCl7UerSwRPXk-4" value="API Gateway" style="rounded=1;whiteSpace=wrap;html=1;" parent="1" vertex="1">
          <mxGeometry x="350" y="340" width="120" height="60" as="geometry" />
        </mxCell>
        <mxCell id="kGEtOs7ZCl7UerSwRPXk-5" style="edgeStyle=orthogonalEdgeStyle;rounded=0;orthogonalLoop=1;jettySize=auto;html=1;exitX=0;exitY=1;exitDx=0;exitDy=0;entryX=0.5;entryY=0;entryDx=0;entryDy=0;" parent="1" source="kGEtOs7ZCl7UerSwRPXk-7" target="srwAjF9KwZ2KX3XEETUP-6" edge="1">
          <mxGeometry relative="1" as="geometry">
            <mxPoint x="550" y="300" as="targetPoint" />
          </mxGeometry>
        </mxCell>
        <mxCell id="kGEtOs7ZCl7UerSwRPXk-6" value="Consul" style="rounded=1;whiteSpace=wrap;html=1;fillColor=#d5e8d4;strokeColor=#82b366;" parent="1" vertex="1">
          <mxGeometry x="595" y="340" width="120" height="60" as="geometry" />
        </mxCell>
        <mxCell id="kGEtOs7ZCl7UerSwRPXk-7" value="consul_kv" style="rounded=1;whiteSpace=wrap;html=1;" parent="1" vertex="1">
          <mxGeometry x="410" y="380" width="60" height="20" as="geometry" />
        </mxCell>
        <mxCell id="kGEtOs7ZCl7UerSwRPXk-8" style="edgeStyle=orthogonalEdgeStyle;rounded=0;orthogonalLoop=1;jettySize=auto;html=1;entryX=0.025;entryY=0.83;entryDx=0;entryDy=0;entryPerimeter=0;fillColor=#d5e8d4;strokeColor=#82b366;" parent="1" source="kGEtOs7ZCl7UerSwRPXk-7" target="kGEtOs7ZCl7UerSwRPXk-6" edge="1">
          <mxGeometry relative="1" as="geometry" />
        </mxCell>
        <mxCell id="kGEtOs7ZCl7UerSwRPXk-13" style="edgeStyle=orthogonalEdgeStyle;rounded=0;orthogonalLoop=1;jettySize=auto;html=1;entryX=0;entryY=0.5;entryDx=0;entryDy=0;" parent="1" source="kGEtOs7ZCl7UerSwRPXk-9" target="kGEtOs7ZCl7UerSwRPXk-10" edge="1">
          <mxGeometry relative="1" as="geometry" />
        </mxCell>
        <mxCell id="kGEtOs7ZCl7UerSwRPXk-9" value="pymongo-api" style="rounded=1;whiteSpace=wrap;html=1;" parent="1" vertex="1">
          <mxGeometry x="455" y="470" width="120" height="60" as="geometry" />
        </mxCell>
        <mxCell id="kGEtOs7ZCl7UerSwRPXk-10" value="Redis" style="rounded=1;whiteSpace=wrap;html=1;" parent="1" vertex="1">
          <mxGeometry x="610" y="470" width="120" height="60" as="geometry" />
        </mxCell>
        <mxCell id="kGEtOs7ZCl7UerSwRPXk-16" style="edgeStyle=orthogonalEdgeStyle;rounded=0;orthogonalLoop=1;jettySize=auto;html=1;fillColor=#dae8fc;strokeColor=#6c8ebf;" parent="1" source="kGEtOs7ZCl7UerSwRPXk-11" edge="1">
          <mxGeometry relative="1" as="geometry">
            <mxPoint x="410" y="640" as="targetPoint" />
          </mxGeometry>
        </mxCell>
        <mxCell id="kGEtOs7ZCl7UerSwRPXk-11" value="Router" style="rounded=1;whiteSpace=wrap;html=1;" parent="1" vertex="1">
          <mxGeometry x="453" y="680" width="125" height="60" as="geometry" />
        </mxCell>
        <mxCell id="kGEtOs7ZCl7UerSwRPXk-14" style="edgeStyle=orthogonalEdgeStyle;rounded=0;orthogonalLoop=1;jettySize=auto;html=1;entryX=0.5;entryY=0;entryDx=0;entryDy=0;" parent="1" source="kGEtOs7ZCl7UerSwRPXk-9" target="kGEtOs7ZCl7UerSwRPXk-11" edge="1">
          <mxGeometry relative="1" as="geometry" />
        </mxCell>
        <mxCell id="kGEtOs7ZCl7UerSwRPXk-18" style="edgeStyle=orthogonalEdgeStyle;rounded=0;orthogonalLoop=1;jettySize=auto;html=1;entryX=0.5;entryY=0;entryDx=0;entryDy=0;entryPerimeter=0;exitX=0.5;exitY=1;exitDx=0;exitDy=0;" parent="1" source="kGEtOs7ZCl7UerSwRPXk-11" target="ud8dLrYySwsIMFc9I5CR-46" edge="1">
          <mxGeometry relative="1" as="geometry">
            <Array as="points">
              <mxPoint x="517" y="800" />
              <mxPoint x="275" y="800" />
            </Array>
          </mxGeometry>
        </mxCell>
        <mxCell id="HG72JcUZbSad4Wbdrgi7-7" value="" style="rounded=0;whiteSpace=wrap;html=1;fillColor=#fff2cc;strokeColor=#d6b656;" vertex="1" parent="1">
          <mxGeometry x="120" y="170" width="150" height="110" as="geometry" />
        </mxCell>
        <mxCell id="HG72JcUZbSad4Wbdrgi7-8" value="Регион 1" style="text;html=1;align=center;verticalAlign=middle;whiteSpace=wrap;rounded=0;" vertex="1" parent="1">
          <mxGeometry x="120" y="170" width="60" height="30" as="geometry" />
        </mxCell>
        <mxCell id="HG72JcUZbSad4Wbdrgi7-9" value="CDN" style="rounded=0;whiteSpace=wrap;html=1;" vertex="1" parent="1">
          <mxGeometry x="134" y="200" width="120" height="60" as="geometry" />
        </mxCell>
        <mxCell id="HG72JcUZbSad4Wbdrgi7-10" value="" style="rounded=0;whiteSpace=wrap;html=1;fillColor=#fff2cc;strokeColor=#d6b656;" vertex="1" parent="1">
          <mxGeometry x="310" y="170" width="150" height="110" as="geometry" />
        </mxCell>
        <mxCell id="HG72JcUZbSad4Wbdrgi7-11" value="Регион 2" style="text;html=1;align=center;verticalAlign=middle;whiteSpace=wrap;rounded=0;" vertex="1" parent="1">
          <mxGeometry x="310" y="170" width="60" height="30" as="geometry" />
        </mxCell>
        <mxCell id="HG72JcUZbSad4Wbdrgi7-12" value="CDN" style="rounded=0;whiteSpace=wrap;html=1;" vertex="1" parent="1">
          <mxGeometry x="324" y="200" width="120" height="60" as="geometry" />
        </mxCell>
        <mxCell id="HG72JcUZbSad4Wbdrgi7-13" style="edgeStyle=orthogonalEdgeStyle;rounded=0;orthogonalLoop=1;jettySize=auto;html=1;entryX=0.5;entryY=1;entryDx=0;entryDy=0;fillColor=#fff2cc;strokeColor=#d6b656;" edge="1" parent="1" source="srwAjF9KwZ2KX3XEETUP-6" target="HG72JcUZbSad4Wbdrgi7-9">
          <mxGeometry relative="1" as="geometry">
            <Array as="points">
              <mxPoint x="290" y="330" />
              <mxPoint x="194" y="330" />
            </Array>
          </mxGeometry>
        </mxCell>
        <mxCell id="HG72JcUZbSad4Wbdrgi7-15" style="edgeStyle=orthogonalEdgeStyle;rounded=0;orthogonalLoop=1;jettySize=auto;html=1;entryX=0.14;entryY=0.942;entryDx=0;entryDy=0;entryPerimeter=0;fillColor=#d5e8d4;strokeColor=#82b366;" edge="1" parent="1" source="kGEtOs7ZCl7UerSwRPXk-9" target="kGEtOs7ZCl7UerSwRPXk-6">
          <mxGeometry relative="1" as="geometry">
            <Array as="points">
              <mxPoint x="550" y="450" />
              <mxPoint x="612" y="450" />
            </Array>
          </mxGeometry>
        </mxCell>
        <mxCell id="HG72JcUZbSad4Wbdrgi7-17" style="edgeStyle=orthogonalEdgeStyle;rounded=0;orthogonalLoop=1;jettySize=auto;html=1;entryX=0.5;entryY=1;entryDx=0;entryDy=0;fillColor=#fff2cc;strokeColor=#d6b656;" edge="1" parent="1" source="srwAjF9KwZ2KX3XEETUP-6" target="HG72JcUZbSad4Wbdrgi7-12">
          <mxGeometry relative="1" as="geometry">
            <Array as="points">
              <mxPoint x="290" y="330" />
              <mxPoint x="384" y="330" />
            </Array>
          </mxGeometry>
        </mxCell>
        <mxCell id="HG72JcUZbSad4Wbdrgi7-18" style="edgeStyle=orthogonalEdgeStyle;rounded=0;orthogonalLoop=1;jettySize=auto;html=1;entryX=1;entryY=0.5;entryDx=0;entryDy=0;fillColor=#fff2cc;strokeColor=#d6b656;" edge="1" parent="1" source="kGEtOs7ZCl7UerSwRPXk-9" target="HG72JcUZbSad4Wbdrgi7-12">
          <mxGeometry relative="1" as="geometry">
            <Array as="points">
              <mxPoint x="530" y="230" />
            </Array>
          </mxGeometry>
        </mxCell>
      </root>
    </mxGraphModel>
  </diagram>
</mxfile>
